<svg width="17" height="17" viewBox="0 0 17 17" fill="none" xmlns="http://www.w3.org/2000/svg">
<path d="M1 5.6875V2.5C1 1.97495 1 1.71242 1.10218 1.51188C1.19207 1.33548 1.33548 1.19207 1.51188 1.10219C1.71242 1 1.97495 1 2.5 1H5.6875M1 11.3125V14.5C1 15.0251 1 15.2876 1.10218 15.4881C1.19207 15.6646 1.33548 15.8079 1.51188 15.8978C1.71242 16 1.97495 16 2.5 16H5.6875M11.3125 1H14.5C15.0251 1 15.2876 1 15.4881 1.10218C15.6646 1.19207 15.8079 1.33548 15.8978 1.51188C16 1.71242 16 1.97495 16 2.5V5.6875M16 11.3125V14.5C16 15.0251 16 15.2876 15.8978 15.4881C15.8079 15.6646 15.6646 15.8079 15.4881 15.8978C15.2876 16 15.0251 16 14.5 16H11.3125" stroke="black" stroke-width="2" stroke-linecap="round" stroke-linejoin="round"/>
</svg>
