<svg width="15" height="4" viewBox="0 0 15 4" fill="none" xmlns="http://www.w3.org/2000/svg">
<path d="M9.16671 1.66667C9.16671 2.58717 8.42054 3.33333 7.50004 3.33333C6.57954 3.33333 5.83337 2.58717 5.83337 1.66667C5.83337 0.746167 6.57954 0 7.50004 0C8.42054 0 9.16671 0.746167 9.16671 1.66667Z" fill="black"/>
<path d="M15.0001 1.66667C15.0001 2.58717 14.2539 3.33333 13.3334 3.33333C12.4129 3.33333 11.6667 2.58717 11.6667 1.66667C11.6667 0.746167 12.4129 0 13.3334 0C14.2539 0 15.0001 0.746167 15.0001 1.66667Z" fill="black"/>
<path d="M3.33333 1.66667C3.33333 2.58717 2.58714 3.33333 1.66667 3.33333C0.746192 3.33333 0 2.58717 0 1.66667C0 0.746167 0.746192 0 1.66667 0C2.58714 0 3.33333 0.746167 3.33333 1.66667Z" fill="black"/>
</svg>
