<svg width="19" height="17" viewBox="0 0 19 17" fill="none" xmlns="http://www.w3.org/2000/svg">
<path d="M15.0625 1L17.875 3.8125M17.875 3.8125L15.0625 6.625M17.875 3.8125H14.125C13.2538 3.8125 12.8181 3.8125 12.4559 3.88456C10.9683 4.18046 9.80547 5.34332 9.50959 6.83087C9.4375 7.19312 9.4375 7.62878 9.4375 8.5C9.4375 9.37122 9.4375 9.80687 9.36541 10.1691C9.06953 11.6567 7.90666 12.8195 6.41909 13.1154C6.05685 13.1875 5.62123 13.1875 4.75 13.1875H1M16 15.0625L17.875 13.1875M17.875 13.1875L15.0625 10.375M17.875 13.1875H14.125C13.2538 13.1875 12.8181 13.1875 12.4559 13.1154M1 3.8125H4.75C5.62123 3.8125 6.05685 3.8125 6.41909 3.88456C6.48845 3.89836 6.55711 3.91403 6.625 3.93154" stroke="black" stroke-width="2" stroke-linecap="round" stroke-linejoin="round"/>
<path d="M16.8999 16L10.8187 9.91883L7.98107 7.08117L1.8999 1" stroke="black" stroke-width="2" stroke-linecap="round"/>
</svg>
